<?xml version="1.0" encoding="UTF-8" standalone="no"?>
<svg
   height="60px"
   version="1.1"
   viewBox="0 0 60 60"
   width="60px"
   id="svg2"
   sodipodi:docname="spotify.svg"
   inkscape:version="1.4 (86a8ad7, 2024-10-11)"
   xmlns:inkscape="http://www.inkscape.org/namespaces/inkscape"
   xmlns:sodipodi="http://sodipodi.sourceforge.net/DTD/sodipodi-0.dtd"
   xmlns="http://www.w3.org/2000/svg"
   xmlns:svg="http://www.w3.org/2000/svg">
  <sodipodi:namedview
     id="namedview2"
     pagecolor="#ffffff"
     bordercolor="#000000"
     borderopacity="0.25"
     inkscape:showpageshadow="2"
     inkscape:pageopacity="0.0"
     inkscape:pagecheckerboard="0"
     inkscape:deskcolor="#d1d1d1"
     inkscape:zoom="9.2166667"
     inkscape:cx="30.05425"
     inkscape:cy="30"
     inkscape:window-width="1366"
     inkscape:window-height="705"
     inkscape:window-x="-8"
     inkscape:window-y="-8"
     inkscape:window-maximized="1"
     inkscape:current-layer="Spotify" />
  <title
     id="title1" />
  <defs
     id="defs1">
    <linearGradient
       id="swatch2"
       inkscape:swatch="solid">
      <stop
         style="stop-color:#008000;stop-opacity:1;"
         offset="0"
         id="stop2" />
    </linearGradient>
  </defs>
  <g
     fill="none"
     fill-rule="evenodd"
     id="black"
     stroke="none"
     stroke-width="1">
    <g
       id="Spotify">
      <path
         d="M 30,60 C 46.568543,60 60,46.568543 60,30 60,13.431457 46.568543,0 30,0 13.431457,0 0,13.431457 0,30 0,46.568543 13.431457,60 30,60 Z"
         fill="#000000"
         id="path1"
         style="fill:#008000;fill-opacity:1;opacity:1" />
      <path
         d="m 38.676152,41.537739 c -0.216857,-0.0064 -0.433018,-0.07069 -0.629023,-0.194384 -0.0021,0 -0.252999,-0.161869 -0.768034,-0.442488 -0.515729,-0.281326 -1.275422,-0.668679 -2.222085,-1.075118 -1.89124,-0.818532 -4.538697,-1.724713 -7.497539,-2.072483 -0.908434,-0.106027 -1.782811,-0.171057 -2.61896,-0.198625 -3.760238,-0.125819 -6.715604,0.443195 -7.920131,0.724521 -0.403131,0.09401 -0.58871,0.151266 -0.589405,0.151266 -0.670726,0.200038 -1.37273,-0.192263 -1.570125,-0.873666 -0.19531,-0.682817 0.188359,-1.398148 0.858391,-1.59748 0.08549,-0.02474 3.897858,-1.154992 9.301201,-0.977573 0.900789,0.0311 1.848147,0.09967 2.826781,0.214882 6.564778,0.781069 11.451002,3.915947 11.541358,3.963306 0.593576,0.378164 0.7729,1.172663 0.401741,1.774192 -0.246048,0.404318 -0.677677,0.618493 -1.11417,0.60365 z m 4.602642,-7.590858 c -0.309994,0.50257 -0.847965,0.772587 -1.393581,0.753502 -0.271071,-0.0092 -0.541447,-0.08977 -0.786106,-0.245277 -0.0014,0.0021 -0.05699,-0.03676 -0.20643,-0.125112 -0.150827,-0.08906 -0.377414,-0.21983 -0.672117,-0.380285 -0.593575,-0.323737 -1.463782,-0.769053 -2.55432,-1.239107 -2.175517,-0.940817 -5.220545,-1.979886 -8.622135,-2.378549 -1.04119,-0.122992 -2.048322,-0.195798 -3.01097,-0.227606 -4.326706,-0.145611 -7.727602,0.508225 -9.110062,0.831962 -0.461516,0.108855 -0.670727,0.171058 -0.672117,0.173178 -0.837539,0.247398 -1.717476,-0.241742 -1.962135,-1.09491 -0.246049,-0.853874 0.234233,-1.748039 1.073857,-1.994022 0.106344,-0.03322 4.518541,-1.340187 10.772629,-1.132373 1.04258,0.03464 2.136594,0.112389 3.270226,0.24669 7.606662,0.906181 13.261614,4.530199 13.374213,4.594522 0.738842,0.473589 0.964039,1.465299 0.499048,2.217387 z m 3.739386,-7.083339 c -0.373243,0.60365 -1.021033,0.925973 -1.673688,0.904061 -0.323199,-0.0106 -0.649179,-0.106028 -0.941797,-0.29405 0,0 -0.06811,-0.04382 -0.244658,-0.149145 -0.175154,-0.1032 -0.441359,-0.258 -0.791666,-0.44885 -0.697834,-0.378164 -1.724427,-0.90194 -3.008885,-1.457523 -2.564747,-1.107634 -6.151916,-2.334017 -10.157508,-2.804072 -1.228854,-0.144198 -2.416699,-0.22902 -3.549636,-0.265776 -5.94757,-0.202159 -10.409812,0.878614 -11.346048,1.130959 -0.13345,0.03534 -0.180714,0.04948 -0.180714,0.04948 -1.005742,0.298997 -2.059443,-0.289102 -2.354145,-1.311206 -0.294703,-1.023518 0.280801,-2.097223 1.288628,-2.39622 0.12789,-0.03534 5.335229,-1.579102 12.715998,-1.333118 1.23094,0.04029 2.520958,0.130767 3.858936,0.289101 8.981477,1.070877 15.649122,5.34661 15.784657,5.423657 0.887583,0.565479 1.156569,1.759348 0.600526,2.662702 z"
         fill="#FFFFFF"
         id="path2"
         style="fill:#000000" />
    </g>
  </g>
</svg>
