<?xml version="1.0" encoding="UTF-8" standalone="no"?>
<svg
   viewBox="0 0 50 50"
   width="50px"
   height="50px"
   version="1.1"
   id="svg1"
   sodipodi:docname="tiktok.svg"
   inkscape:version="1.4 (86a8ad7, 2024-10-11)"
   xmlns:inkscape="http://www.inkscape.org/namespaces/inkscape"
   xmlns:sodipodi="http://sodipodi.sourceforge.net/DTD/sodipodi-0.dtd"
   xmlns="http://www.w3.org/2000/svg"
   xmlns:svg="http://www.w3.org/2000/svg">
  <defs
     id="defs1" />
  <sodipodi:namedview
     id="namedview1"
     pagecolor="#ffffff"
     bordercolor="#000000"
     borderopacity="0.25"
     inkscape:showpageshadow="2"
     inkscape:pageopacity="0.0"
     inkscape:pagecheckerboard="0"
     inkscape:deskcolor="#d1d1d1"
     inkscape:zoom="11.06"
     inkscape:cx="25.045208"
     inkscape:cy="25"
     inkscape:window-width="1366"
     inkscape:window-height="705"
     inkscape:window-x="-8"
     inkscape:window-y="-8"
     inkscape:window-maximized="1"
     inkscape:current-layer="svg1" />
  <path
     d="M 41,4 H 9 C 6.243,4 4,6.243 4,9 v 32 c 0,2.757 2.243,5 5,5 h 32 c 2.757,0 5,-2.243 5,-5 V 9 C 46,6.243 43.757,4 41,4 Z m -3.994,18.323 c -0.227,0.021 -0.457,0.035 -0.69,0.035 -2.623,0 -4.928,-1.349 -6.269,-3.388 v 11.537 c 0,4.709 -3.818,8.527 -8.527,8.527 -4.709,0 -8.527,-3.818 -8.527,-8.527 0,-4.709 3.818,-8.527 8.527,-8.527 0.178,0 0.352,0.016 0.527,0.027 v 4.202 C 21.872,26.188 21.7,26.156 21.52,26.156 c -2.404,0 -4.352,1.948 -4.352,4.352 0,2.404 1.948,4.352 4.352,4.352 2.404,0 4.527,-1.894 4.527,-4.298 0,-0.095 0.042,-19.594 0.042,-19.594 h 4.016 c 0.378,3.591 3.277,6.425 6.901,6.685 z"
     id="path1"
     style="fill-rule:evenodd"
     sodipodi:nodetypes="ssssssssscscssssccsssscccc" />
  <path
     style="fill:#ffffff;fill-rule:evenodd;stroke-width:0.0904159"
     d="M 20.131984,38.880502 C 18.31615,38.550977 16.678378,37.667316 15.415519,36.335729 14.64654,35.5249 14.162176,34.807887 13.768854,33.898139 c -0.509735,-1.17901 -0.67588,-1.973959 -0.688104,-3.292352 -0.01442,-1.555824 0.22024,-2.591272 0.89136,-3.933093 1.346821,-2.692796 4.372135,-4.611211 7.271818,-4.611211 h 0.727139 v 2.034358 2.034358 h -0.523499 c -1.621473,0 -3.16286,0.981315 -3.861731,2.458546 -1.606996,3.396774 1.346129,7.03616 5.008819,6.172788 1.828454,-0.431004 3.214924,-1.910438 3.444051,-3.67498 0.04946,-0.380897 0.08709,-4.77585 0.0887,-10.358705 l 0.0028,-9.697107 h 1.98915 1.98915 v 0.250461 c 0,0.417892 0.348888,1.540434 0.698562,2.247615 0.739847,1.496268 1.885474,2.63288 3.415362,3.388484 0.821317,0.405644 1.134384,0.499909 2.555798,0.769554 l 0.204983,0.03889 -0.02415,2.280891 -0.02415,2.280891 -0.90416,-0.01836 c -1.414544,-0.02872 -2.817936,-0.498021 -3.9783,-1.330348 -0.582765,-0.418017 -1.53725,-1.360558 -1.791106,-1.768694 l -0.198044,-0.318402 -0.05099,6.464738 c -0.04411,5.592762 -0.07092,6.53791 -0.19877,7.007233 -0.51717,1.898525 -1.217481,3.10608 -2.519931,4.345147 -1.000832,0.952127 -2.104349,1.582299 -3.488144,1.99193 -0.641759,0.189974 -1.029394,0.241368 -2.015219,0.267187 -0.671338,0.01758 -1.417551,-0.0038 -1.658251,-0.04745 z"
     id="path2" />
  <path
     style="fill:#ffffff;fill-rule:evenodd;stroke-width:0.0904159"
     d="m 20.131984,38.880502 c -1.125494,-0.204247 -2.472856,-0.753171 -3.40504,-1.387235 -0.555957,-0.378158 -1.475818,-1.265376 -1.954673,-1.885309 -1.879053,-2.43265 -2.249888,-5.842467 -0.939507,-8.638746 1.363328,-2.909266 4.381208,-4.907729 7.411164,-4.907729 h 0.727139 v 2.034358 2.034358 h -0.523499 c -3.176155,0 -5.266243,3.427635 -3.851512,6.316275 1.721139,3.514274 6.868537,3.152543 8.284131,-0.582164 l 0.20286,-0.535196 0.02689,-10.149186 0.02689,-10.149187 1.963234,2.97e-4 1.963234,2.97e-4 0.150399,0.775413 c 0.297585,1.534268 1.331852,3.211857 2.607024,4.228611 1.01678,0.810726 2.832178,1.591591 3.713092,1.597129 0.452941,0.0028 0.451187,-0.0071 0.425313,2.400971 l -0.02422,2.254064 -0.90416,-0.01836 c -1.37568,-0.02794 -2.723607,-0.468367 -3.9282,-1.283529 -0.48757,-0.329944 -1.592283,-1.406492 -1.795423,-1.749647 -0.08095,-0.136755 -0.179106,-0.248644 -0.218113,-0.248644 -0.03901,0 -0.07092,2.682408 -0.07092,5.960908 0,3.794302 -0.03569,6.217977 -0.09819,6.668173 -0.385804,2.778827 -2.142551,5.218637 -4.667781,6.48272 -1.136679,0.569 -2.069572,0.792345 -3.461873,0.82881 -0.671338,0.01758 -1.417551,-0.0038 -1.658251,-0.04745 z"
     id="path3" />
  <path
     style="fill:#ffffff;fill-rule:evenodd;stroke-width:0.0904159"
     d="M 20.131984,38.880502 C 18.258173,38.540456 16.64991,37.65345 15.309436,36.220719 12.972438,33.722882 12.387199,30.053967 13.833463,26.96772 c 1.364776,-2.912357 4.376367,-4.906237 7.410465,-4.906237 h 0.727139 v 2.034358 2.034358 h -0.523499 c -3.535155,0 -5.565484,4.186291 -3.409127,7.029206 0.455361,0.600343 0.812609,0.899883 1.471408,1.233722 0.990346,0.501845 2.005058,0.622924 3.085714,0.368195 1.51031,-0.356006 2.729156,-1.435124 3.289542,-2.912431 l 0.197166,-0.519777 0.02762,-10.149186 0.02762,-10.149187 h 1.985496 c 1.981561,0 1.985494,3.92e-4 1.985494,0.19766 0,0.677882 0.601762,2.254632 1.210461,3.171676 1.064989,1.604474 3.132588,2.945633 4.914409,3.187757 0.828126,0.112531 0.752847,-0.138854 0.725674,2.423268 l -0.02414,2.276421 -0.90416,-0.01836 c -1.404057,-0.02851 -2.701129,-0.455525 -3.933092,-1.294828 -0.55796,-0.380123 -1.567029,-1.359635 -1.790804,-1.738348 -0.0808,-0.136755 -0.178833,-0.248644 -0.21784,-0.248644 -0.03901,0 -0.07092,2.682408 -0.07092,5.960908 0,3.794302 -0.03569,6.217977 -0.09819,6.668173 -0.385804,2.778827 -2.142551,5.218637 -4.667781,6.48272 -1.136679,0.569 -2.069572,0.792345 -3.461873,0.82881 -0.671338,0.01758 -1.417551,-0.0038 -1.658251,-0.04745 z"
     id="path4" />
  <path
     style="fill:#ffffff;fill-rule:evenodd;stroke-width:0.0904159"
     d="m 19.891501,38.837605 c -1.814895,-0.39077 -3.284631,-1.230157 -4.582065,-2.616886 -3.128077,-3.343362 -2.997431,-8.503307 0.297502,-11.749988 1.498223,-1.476283 3.304339,-2.281424 5.34695,-2.383593 l 1.017179,-0.05088 v 2.035353 2.035353 l -0.700723,0.04748 c -0.92093,0.0624 -1.480299,0.246792 -2.193984,0.723217 -0.688128,0.459363 -1.336045,1.264112 -1.631258,2.026112 -0.303103,0.782367 -0.347614,2.079803 -0.09932,2.89505 0.355065,1.16582 1.126057,2.067926 2.236427,2.616751 2.476924,1.224273 5.54625,-0.115185 6.347389,-2.770008 0.179533,-0.594937 0.197426,-1.592787 0.199013,-11.098554 l 0.0016,-9.516275 h 1.977502 1.977502 l 0.05852,0.441128 c 0.190289,1.434468 1.032672,2.98307 2.253171,4.142139 1.062854,1.009359 2.557495,1.7823 3.814682,1.972731 0.198915,0.03013 0.453906,0.07373 0.566648,0.09689 l 0.204983,0.04211 -0.02415,2.280891 -0.02415,2.280891 -0.90416,-0.01836 c -2.144886,-0.04356 -4.002261,-0.985083 -5.582297,-2.829741 l -0.42595,-0.497287 -0.0022,5.983512 c -0.0014,3.798114 -0.03807,6.24183 -0.100399,6.690777 -0.385804,2.778827 -2.142551,5.218637 -4.667781,6.48272 -1.150447,0.575892 -2.066392,0.793012 -3.507081,0.831333 -0.862543,0.02294 -1.45306,-0.0066 -1.853526,-0.09287 z"
     id="path5" />
  <path
     style="fill:#ffffff;fill-rule:evenodd;stroke-width:0.0904159"
     d="m 19.891501,38.831666 c -1.772256,-0.363679 -3.260716,-1.208842 -4.571604,-2.595807 -1.209629,-1.279828 -1.972957,-2.909237 -2.215015,-4.728193 -0.457595,-3.43862 1.487191,-7.020244 4.661845,-8.585507 1.120157,-0.552294 1.966187,-0.773949 3.187161,-0.835021 l 1.017179,-0.05088 v 2.03405 2.03405 l -0.700723,0.04867 c -1.529893,0.106264 -2.797933,0.890678 -3.544045,2.192359 -0.378083,0.659612 -0.547275,1.333053 -0.547275,2.178337 0,1.289281 0.430276,2.27492 1.388885,3.181533 2.282949,2.159119 6.164396,1.191885 7.272856,-1.812353 0.257346,-0.697483 0.28741,-1.945787 0.288483,-11.978801 l 9.51e-4,-8.883364 h 1.977502 1.977502 l 0.06121,0.461396 c 0.0856,0.645257 0.526028,1.807125 0.971312,2.56234 0.761336,1.291252 2.293534,2.56641 3.782821,3.14822 0.510338,0.199371 0.821362,0.279452 1.877679,0.483456 l 0.204983,0.03959 -0.02415,2.280891 -0.02415,2.280891 -0.834111,-0.01232 C 33.957048,22.243552 32.030854,21.29437 30.545561,19.53772 l -0.48227,-0.570379 -0.05102,6.406926 c -0.0554,6.956288 -0.03953,6.734337 -0.584408,8.171876 -0.532253,1.404222 -1.74062,2.961352 -2.981204,3.84165 -1.044558,0.7412 -2.387866,1.300641 -3.571429,1.487376 -0.794294,0.125318 -2.265572,0.103867 -2.983725,-0.0435 z"
     id="path6" />
  <path
     style="fill:#ffffff;fill-rule:evenodd;stroke-width:0.0904159"
     d="m 19.891501,38.837605 c -1.819672,-0.391798 -3.254844,-1.208569 -4.571604,-2.601746 -1.209629,-1.279828 -1.972957,-2.909237 -2.215015,-4.728193 -0.457595,-3.43862 1.487191,-7.020244 4.661845,-8.585507 1.120157,-0.552294 1.966187,-0.773949 3.187161,-0.835021 l 1.017179,-0.05088 v 2.046971 2.046969 h -0.447629 c -1.176065,0 -2.320972,0.509284 -3.159106,1.405251 -0.832162,0.889584 -1.180888,1.769579 -1.180888,2.979921 0,1.215247 0.348542,2.09014 1.191792,2.991577 2.098503,2.243306 5.88087,1.620345 7.273772,-1.198001 l 0.337948,-0.68379 0.06539,-1.549468 c 0.03597,-0.852208 0.0682,-5.485951 0.07162,-10.297208 l 0.0062,-8.74774 h 1.977502 1.977502 l 0.05814,0.429476 c 0.08773,0.648048 0.532588,1.845861 0.94011,2.531295 1.006395,1.692708 2.960628,3.120139 4.79845,3.504935 0.380236,0.07961 0.783579,0.163772 0.896321,0.187022 l 0.204983,0.04227 -0.02415,2.280891 -0.02415,2.280891 -0.869446,-0.01535 c -1.052853,-0.01858 -1.872347,-0.208898 -2.849057,-0.661648 -1.08272,-0.50189 -2.112895,-1.314447 -2.781225,-2.19371 -0.141746,-0.186482 -0.291549,-0.339059 -0.332895,-0.339059 -0.04135,0 -0.08956,2.858273 -0.107141,6.351718 -0.03121,6.20057 -0.03669,6.369614 -0.230649,7.103787 -0.42365,1.603647 -1.220146,2.938978 -2.444251,4.0978 -1.118882,1.059211 -2.275468,1.707676 -3.777141,2.117733 -0.741733,0.202543 -2.881653,0.254587 -3.651595,0.08881 z"
     id="path7" />
  <path
     style="fill:#ffffff;fill-rule:evenodd;stroke-width:0.0904159"
     d="m 20.04781,38.881328 c -2.687204,-0.488735 -5.09771,-2.384097 -6.263605,-4.925024 -0.504581,-1.099675 -0.7101,-2.097743 -0.708547,-3.440933 0.0017,-1.473013 0.220672,-2.43445 0.844287,-3.707053 0.832335,-1.698531 2.188431,-3.068509 3.846782,-3.886159 1.120157,-0.552294 1.966187,-0.773949 3.187161,-0.835021 l 1.017179,-0.05088 v 2.046971 2.046969 h -0.394531 c -1.977135,0 -3.761834,1.372828 -4.27106,3.285389 -0.657769,2.47046 1.046292,5.022424 3.608127,5.403449 1.898348,0.282345 3.851488,-0.740119 4.716431,-2.469039 0.169792,-0.339394 0.329755,-0.789311 0.355473,-0.999814 0.0979,-0.801337 0.141456,-4.544802 0.143045,-12.29503 l 0.0016,-8.024413 h 1.98915 c 1.871231,0 1.98915,0.0099 1.98915,0.166369 0,0.394575 0.38426,1.614736 0.724426,2.300303 1.117334,2.25187 3.054933,3.616702 5.945296,4.187824 l 0.204983,0.0405 -0.02415,2.280891 -0.02415,2.280891 -0.869446,-0.01535 c -0.478196,-0.0084 -1.149534,-0.08386 -1.491863,-0.167604 -1.442955,-0.352981 -3.093505,-1.389914 -4.011932,-2.520434 -0.223185,-0.274725 -0.43473,-0.470532 -0.470099,-0.435128 -0.03537,0.03541 -0.07875,2.89213 -0.09641,6.348279 -0.03132,6.1297 -0.03698,6.302361 -0.230722,7.035975 -0.423458,1.603437 -1.22003,2.938928 -2.444188,4.0978 -1.107231,1.048181 -2.336772,1.739902 -3.766892,2.119193 -0.629779,0.167028 -2.851164,0.250086 -3.505535,0.131072 z"
     id="path8" />
  <path
     style="fill:#ffffff;fill-rule:evenodd;stroke-width:0.0904159"
     d="m 20.04781,38.881328 c -2.694836,-0.490123 -5.087575,-2.375268 -6.273934,-4.942985 -0.508174,-1.099876 -0.701917,-2.06163 -0.69866,-3.46818 0.0035,-1.499117 0.198942,-2.347084 0.844113,-3.661845 1.408187,-2.869672 4.309395,-4.746835 7.336364,-4.746835 h 0.715374 v 2.034358 2.034358 l -0.429476,0.0013 c -0.589622,0.0018 -1.469623,0.221233 -2.033546,0.506995 -0.631581,0.320046 -1.52064,1.226511 -1.854454,1.89076 -0.867181,1.725587 -0.543722,3.707637 0.825548,5.058686 0.992492,0.979284 2.322965,1.426835 3.657237,1.230238 1.991741,-0.293471 3.734622,-1.976798 3.858525,-3.726678 0.09189,-1.297828 0.134585,-5.23476 0.134932,-12.443254 l 3.66e-4,-7.617541 h 1.973522 1.973521 l 0.112149,0.608652 c 0.334202,1.813785 1.598833,3.691539 3.203525,4.756673 0.951078,0.63129 1.695257,0.915356 3.340097,1.274975 l 0.250191,0.0547 -0.02415,2.280891 -0.02415,2.280891 -0.869446,-0.01535 c -0.478196,-0.0084 -1.149534,-0.08386 -1.491863,-0.167604 -1.444728,-0.353415 -3.126759,-1.408685 -4.010359,-2.516012 -0.22097,-0.276921 -0.423855,-0.481445 -0.450853,-0.454496 -0.027,0.02695 -0.07175,2.903921 -0.09944,6.393272 -0.04954,6.242107 -0.05365,6.355879 -0.255102,7.0649 -0.458313,1.613076 -1.234745,2.899845 -2.437015,4.038828 -1.113029,1.054442 -2.312627,1.728819 -3.767475,2.117964 -0.629162,0.168289 -2.847364,0.252006 -3.505535,0.132301 z"
     id="path9" />
  <path
     style="fill:#ffffff;fill-rule:evenodd;stroke-width:0.0904159"
     d="m 20.207957,38.910518 c -2.740578,-0.438269 -5.223044,-2.351046 -6.42359,-4.949471 -0.529347,-1.145701 -0.714495,-2.073726 -0.705477,-3.536092 0.0093,-1.500743 0.180973,-2.270644 0.786488,-3.526221 1.409811,-2.92334 4.33387,-4.837251 7.390315,-4.837251 h 0.715374 v 2.034358 2.034358 l -0.384268,0.0016 c -0.608764,0.0025 -1.568728,0.239146 -2.082314,0.51335 -0.623908,0.333106 -1.520015,1.227771 -1.817239,1.814314 -0.502616,0.991865 -0.635262,2.117911 -0.369623,3.137768 0.431359,1.656098 1.867078,2.942054 3.584221,3.210341 2.163689,0.338056 4.494062,-1.160456 4.991035,-3.209409 0.172566,-0.711468 0.236437,-4.348694 0.236935,-13.492346 l 3.85e-4,-7.075046 h 1.978884 1.978884 l 0.06114,0.40768 c 0.164581,1.097502 0.868026,2.593043 1.665136,3.540115 1.192126,1.416405 2.595362,2.184526 4.918775,2.692505 l 0.250191,0.0547 -0.02415,2.280891 -0.02415,2.280891 -0.858952,-0.0151 c -0.472423,-0.0083 -1.141873,-0.08084 -1.487666,-0.161196 -1.386097,-0.322096 -3.056098,-1.360985 -4.027704,-2.505589 l -0.406872,-0.479316 -0.05393,0.314776 c -0.02966,0.173127 -0.06103,2.824905 -0.06971,5.892841 -0.0091,3.214382 -0.05562,5.896319 -0.109807,6.329114 -0.230096,1.837859 -1.113299,3.549294 -2.536977,4.91605 -0.782159,0.750885 -1.280605,1.103523 -2.22984,1.577553 -1.087325,0.542989 -1.931192,0.733036 -3.408419,0.76761 -0.696202,0.01629 -1.387884,0.01011 -1.53707,-0.01375 z"
     id="path10" />
  <path
     style="fill:#ffffff;fill-rule:evenodd;stroke-width:0.0904159"
     d="m 19.755877,38.820307 c -3.315535,-0.703066 -6.053017,-3.588454 -6.608538,-6.965599 -0.285654,-1.73656 -0.02554,-3.440493 0.770354,-5.04639 1.434744,-2.894917 4.297573,-4.746835 7.338,-4.746835 h 0.715374 v 2.034358 2.034358 h -0.345058 c -0.604204,0 -1.400244,0.187528 -1.99519,0.47002 -0.683271,0.324429 -1.566697,1.168753 -1.928928,1.84355 -0.686586,1.279033 -0.686586,2.866233 0,4.142054 0.589037,1.094556 1.935798,2.028688 3.206789,2.224273 2.243931,0.345305 4.674598,-1.314135 5.032555,-3.435774 0.118031,-0.69958 0.187117,-5.688806 0.188112,-13.584991 l 8.52e-4,-6.75859 h 1.978884 1.978884 l 0.06114,0.40768 c 0.08821,0.588209 0.438939,1.570849 0.818469,2.293096 1.024104,1.948874 3.073113,3.413521 5.379626,3.845397 l 0.587704,0.110042 v 2.300284 2.300283 l -0.858952,-0.0151 c -0.472423,-0.0083 -1.141873,-0.08084 -1.487666,-0.161196 -1.378079,-0.320233 -3.055365,-1.36053 -4.014769,-2.490065 -0.216665,-0.255086 -0.420101,-0.437642 -0.452079,-0.405681 -0.03198,0.03196 -0.08174,2.892665 -0.110572,6.357119 -0.05913,7.103916 -0.03449,6.843308 -0.801703,8.480498 -1.155037,2.464786 -3.538178,4.329885 -6.10433,4.777384 -0.986865,0.172095 -2.511231,0.167462 -3.348953,-0.01018 z"
     id="path11" />
  <path
     style="fill:#ffffff;fill-rule:evenodd;stroke-width:0.0904159"
     d="m 19.757285,38.819214 c -2.737091,-0.586431 -5.153832,-2.685935 -6.19549,-5.382228 -0.569811,-1.474934 -0.675496,-3.403842 -0.274014,-5.001181 0.242371,-0.964301 0.952401,-2.368935 1.638463,-3.241327 1.497437,-1.904134 3.961518,-3.132995 6.282199,-3.132995 h 0.762624 v 2.02109 2.021092 l -0.668617,0.05652 c -2.781198,0.235096 -4.614242,2.713681 -3.98407,5.387137 0.336378,1.427058 1.405644,2.568051 2.89824,3.092655 0.708134,0.24889 1.857436,0.247146 2.665128,-0.004 1.557847,-0.484484 2.851652,-1.892589 3.065418,-3.33623 0.105793,-0.714455 0.181326,-6.501123 0.182251,-13.962452 l 7.82e-4,-6.30651 h 1.973752 1.973752 l 0.151917,0.700724 c 0.64178,2.960241 2.985925,5.208269 6.083826,5.834368 l 0.621455,0.125599 v 2.298045 2.298046 l -0.830023,-0.01212 c -0.456513,-0.0067 -1.133798,-0.0797 -1.505081,-0.162306 -1.370715,-0.304956 -2.967269,-1.281547 -3.955739,-2.419675 l -0.490351,-0.564592 -0.04982,0.720396 c -0.0274,0.396218 -0.05853,3.045519 -0.06917,5.887336 -0.0199,5.314134 -0.06733,6.191591 -0.391468,7.241973 -0.906747,2.938377 -3.587048,5.337277 -6.538412,5.851952 -0.98917,0.172497 -2.513793,0.167364 -3.347545,-0.01127 z"
     id="path12" />
  <path
     style="fill:#ffffff;fill-rule:evenodd;stroke-width:0.0904159"
     d="m 19.757285,38.82544 c -1.526624,-0.342135 -2.928805,-1.107937 -4.098972,-2.238659 -1.16506,-1.125786 -1.965199,-2.472437 -2.383445,-4.011394 -0.276307,-1.01668 -0.274369,-3.108169 0.0038,-4.139582 0.216508,-0.802683 0.754448,-1.988874 1.199748,-2.645517 1.553239,-2.290423 4.149326,-3.728805 6.729991,-3.728805 h 0.762624 v 2.034358 2.034358 l -0.384268,0.0013 c -0.548807,0.0019 -1.445105,0.230455 -2.035727,0.519087 -0.610617,0.298404 -1.510893,1.173881 -1.849761,1.798807 -0.88133,1.625317 -0.587862,3.730874 0.702785,5.042308 0.888303,0.902609 1.901794,1.319676 3.199114,1.316483 2.147549,-0.0053 4.058228,-1.584573 4.338545,-3.586058 0.110672,-0.790207 0.18738,-6.585444 0.187976,-14.201366 l 4.68e-4,-5.990055 h 1.977386 1.977387 l 0.110509,0.5651 c 0.231653,1.184575 0.857751,2.460903 1.705381,3.47649 0.877174,1.050986 2.551411,2.041048 4.039463,2.388744 0.447559,0.104576 0.865303,0.204949 0.928321,0.223051 0.08943,0.02569 0.109274,0.534441 0.09042,2.318154 l -0.02416,2.285243 -0.90416,-0.01911 c -0.54431,-0.0115 -1.178708,-0.08989 -1.593993,-0.196951 -1.357838,-0.350054 -2.895423,-1.315612 -3.821854,-2.400011 -0.240573,-0.281593 -0.460103,-0.48929 -0.487845,-0.461547 -0.02774,0.02774 -0.07784,2.887975 -0.111316,6.356074 -0.05866,6.076206 -0.06798,6.331952 -0.25622,7.028961 -0.789225,2.922347 -3.107944,5.280745 -6.007716,6.110521 -0.896355,0.256494 -3.09122,0.322421 -3.994512,0.119982 z"
     id="path13" />
  <path
     style="fill:#ffffff;fill-rule:evenodd;stroke-width:0.0904159"
     d="m 19.484629,38.756164 c -1.533656,-0.408358 -2.650654,-1.043103 -3.82994,-2.176403 -1.158305,-1.113134 -1.962229,-2.466075 -2.37942,-4.004374 -0.278002,-1.025072 -0.277161,-3.115148 0.0017,-4.139582 0.219042,-0.804782 0.758049,-1.991575 1.201517,-2.645517 1.553239,-2.290423 4.149326,-3.728805 6.729991,-3.728805 h 0.762624 v 2.034358 2.034358 l -0.33906,0.0016 c -2.038046,0.0094 -3.943958,1.544693 -4.353066,3.506497 -0.446302,2.140157 0.858102,4.339736 2.961144,4.993287 2.541703,0.789874 5.37963,-0.950783 5.717053,-3.506582 0.04426,-0.33528 0.107954,-4.993642 0.141531,-10.351915 l 0.06105,-9.742315 h 1.962625 1.962627 l 0.110247,0.5651 c 0.569427,2.918744 2.958943,5.28115 6.004431,5.936311 l 0.735251,0.158171 v 2.2986 2.2986 l -0.830023,-0.01212 c -0.456513,-0.0067 -1.141371,-0.08139 -1.521908,-0.16605 -1.374178,-0.305725 -3.136169,-1.402761 -4.055109,-2.524759 -0.192045,-0.234481 -0.371271,-0.404232 -0.398279,-0.377224 -0.02701,0.02701 -0.07751,2.88751 -0.112239,6.356673 -0.06076,6.070306 -0.07047,6.334776 -0.258156,7.030896 -0.787487,2.920786 -3.105583,5.278827 -6.00739,6.110907 -0.487551,0.139803 -1.001641,0.196615 -2.051978,0.226764 -1.267995,0.0364 -1.478934,0.01959 -2.21519,-0.176444 z"
     id="path14" />
  <path
     style="fill:#ffffff;fill-rule:evenodd;stroke-width:0.0904159"
     d="m 19.755877,38.842268 c -1.498745,-0.34286 -2.938212,-1.135814 -4.101188,-2.259207 -1.161453,-1.12192 -1.96899,-2.477611 -2.375584,-3.988124 -0.281848,-1.047076 -0.282934,-3.127584 -0.0022,-4.159132 0.655245,-2.407427 2.299447,-4.435339 4.489792,-5.537582 1.020321,-0.513453 1.978693,-0.761712 3.141953,-0.8139 l 1.062387,-0.04766 v 2.046769 2.04677 l -0.33906,0.0016 c -0.55024,0.0025 -1.502784,0.237802 -2.01613,0.497934 -0.921989,0.467208 -1.846422,1.511291 -2.169481,2.450278 -0.523565,1.521766 -0.173962,3.176192 0.914332,4.326902 0.90721,0.959241 1.904576,1.40409 3.143711,1.40217 1.259235,-0.002 2.380094,-0.468986 3.279792,-1.36661 0.694915,-0.693316 1.05243,-1.441833 1.160538,-2.429785 0.09554,-0.873075 0.183803,-8.140075 0.184775,-15.212477 l 6.55e-4,-4.76944 h 1.977386 1.977387 l 0.109776,0.5651 c 0.547897,2.820447 2.849534,5.163626 5.759092,5.863038 0.440126,0.105799 0.851088,0.206897 0.913249,0.224663 0.08664,0.02476 0.113019,0.574243 0.113019,2.354485 v 2.322184 l -0.926763,-0.05678 C 35.543626,22.272197 34.810295,22.165715 34.42372,22.0668 33.049544,21.715183 31.418715,20.672904 30.515371,19.568937 l -0.361664,-0.441985 -0.04654,1.354246 c -0.0256,0.744835 -0.05713,3.397777 -0.07007,5.895428 -0.01294,2.49765 -0.06443,4.867375 -0.114419,5.266056 -0.409783,3.268082 -2.899542,6.128924 -6.143289,7.058906 -0.875425,0.250984 -3.187897,0.331839 -4.023508,0.14068 z"
     id="path15" />
  <path
     style="fill:#ffffff;fill-rule:evenodd;stroke-width:0.0904159"
     d="m 19.755877,38.842268 c -1.988339,-0.454863 -3.957479,-1.77173 -5.160224,-3.450914 -0.523249,-0.730523 -1.077145,-1.907026 -1.316548,-2.796417 -0.281848,-1.047076 -0.282934,-3.127584 -0.0022,-4.159132 0.655245,-2.407427 2.299447,-4.435339 4.489792,-5.537582 1.020321,-0.513453 1.978693,-0.761712 3.141953,-0.8139 l 1.062387,-0.04766 v 2.033786 2.033785 l -0.616032,0.05726 c -1.212662,0.112705 -2.118548,0.545475 -2.935952,1.402597 -1.675978,1.757414 -1.608884,4.401174 0.153536,6.049831 0.888996,0.831613 1.773473,1.189605 2.949976,1.194002 1.66951,0.0062 3.345051,-1.007881 4.058014,-2.456113 0.225132,-0.457306 0.303455,-0.764622 0.365783,-1.43521 0.09038,-0.972428 0.182844,-8.729297 0.183419,-15.38766 l 3.88e-4,-4.498192 h 1.980074 1.980074 l 0.152085,0.683593 c 0.333968,1.501119 1.042865,2.753192 2.159158,3.813562 1.070366,1.016743 2.079705,1.550808 3.719567,1.968112 l 0.813744,0.207077 0.02416,2.328658 0.02416,2.328658 -0.928317,-0.05688 c -1.153292,-0.07066 -2.110424,-0.310321 -2.974941,-0.744902 -0.972056,-0.48864 -1.392162,-0.799323 -2.225529,-1.645855 l -0.745931,-0.757715 -0.0086,0.933324 c -0.0048,0.513328 -0.0395,3.374553 -0.07721,6.358279 -0.06513,5.153284 -0.07833,5.461177 -0.263518,6.148282 -0.791679,2.937331 -3.075625,5.2647 -5.995435,6.109425 -0.858056,0.248242 -3.176737,0.328027 -4.007809,0.137906 z"
     id="path16" />
  <path
     style="fill:#ffffff;fill-rule:evenodd;stroke-width:0.0904159"
     d="m 19.755877,38.842268 c -1.988339,-0.454863 -3.957479,-1.77173 -5.160224,-3.450914 -0.523249,-0.730523 -1.077145,-1.907026 -1.316548,-2.796417 -0.2806,-1.042442 -0.282744,-3.124945 -0.0043,-4.159132 0.417282,-1.54975 1.531698,-3.357387 2.656195,-4.30848 1.559605,-1.319105 3.10206,-1.951339 4.977662,-2.040284 l 1.062387,-0.05038 v 2.035087 2.035087 l -0.635375,0.06261 c -1.171842,0.11547 -1.905501,0.445168 -2.751367,1.236435 -1.787653,1.672262 -1.838918,4.365316 -0.115896,6.088337 1.784561,1.784562 4.492832,1.757906 6.312871,-0.06213 0.78879,-0.788789 1.074197,-1.437868 1.168807,-2.658114 0.08533,-1.100626 0.178914,-9.207722 0.179624,-15.56149 l 4.68e-4,-4.181736 h 1.974453 1.974453 l 0.195213,0.79114 c 0.367201,1.488149 1.146177,2.812621 2.247089,3.820669 1.007419,0.922441 2.091101,1.47991 3.59274,1.848183 l 0.820754,0.201287 0.02416,2.334043 0.02416,2.334043 -0.976925,-0.05933 c -2.067523,-0.125573 -3.617589,-0.83656 -5.113325,-2.34539 -0.389067,-0.392473 -0.724664,-0.696319 -0.745769,-0.675214 -0.02111,0.02111 -0.05927,2.354224 -0.08482,5.184709 -0.06254,6.92974 -0.08004,7.333464 -0.359789,8.298815 -0.835814,2.884219 -3.058191,5.107256 -5.938906,5.94067 -0.858056,0.248242 -3.176737,0.328027 -4.007809,0.137906 z"
     id="path17" />
  <path
     style="fill:#ffffff;fill-rule:evenodd;stroke-width:0.0904159"
     d="M 19.755877,38.842268 C 18.268008,38.501895 16.674908,37.619845 15.56955,36.524429 12.213881,33.19894 12.185303,27.879175 15.50519,24.543828 c 0.756532,-0.760054 1.526022,-1.297918 2.52204,-1.762876 1.032505,-0.481989 1.661133,-0.633075 2.88145,-0.692531 l 1.062387,-0.05176 v 2.034284 2.034283 l -0.587756,0.06022 c -2.154245,0.220709 -3.776242,1.670114 -4.114729,3.676891 -0.358256,2.123982 1.070528,4.270945 3.213783,4.829192 2.17057,0.565362 4.631382,-0.752683 5.297533,-2.837428 0.180285,-0.564208 0.194115,-0.870133 0.263984,-5.839524 0.04055,-2.884268 0.07656,-7.431058 0.08003,-10.103978 l 0.0063,-4.859856 h 1.974453 1.974453 l 0.194316,0.787121 c 0.712225,2.885017 2.819271,4.929493 5.847736,5.674087 l 0.813744,0.200071 0.02416,2.334259 0.02416,2.334258 -0.973526,-0.0571 c -0.535439,-0.03141 -1.271152,-0.140257 -1.634918,-0.241889 -1.342522,-0.375086 -2.730432,-1.236523 -3.676375,-2.281824 -0.274539,-0.303376 -0.517581,-0.533174 -0.540092,-0.510662 -0.02251,0.02251 -0.07836,2.887638 -0.124114,6.366948 l -0.08318,6.326018 -0.241797,0.806608 c -0.883474,2.947164 -3.147585,5.175297 -6.078637,5.982042 -0.734159,0.20207 -3.142873,0.259009 -3.874698,0.09159 z"
     id="path18" />
  <path
     style="fill:#ffffff;fill-rule:evenodd;stroke-width:0.0904159"
     d="m 19.755877,38.842268 c -1.987322,-0.45463 -3.96633,-1.775758 -5.154725,-3.441145 -0.529439,-0.741942 -1.082258,-1.915358 -1.322047,-2.806186 -0.259883,-0.965475 -0.288451,-3.137744 -0.05271,-4.007875 0.709465,-2.618657 2.303942,-4.590066 4.618273,-5.710021 1.190861,-0.576284 1.771097,-0.725627 3.064011,-0.78862 l 1.062387,-0.05176 v 2.036236 2.036237 l -0.610308,0.06395 c -3.178942,0.333089 -5.033127,3.419432 -3.71436,6.182659 0.327428,0.686063 1.171889,1.569553 1.846195,1.93152 1.679159,0.901374 3.688586,0.606682 5.143499,-0.754319 1.141056,-1.067401 1.298816,-1.580302 1.35921,-4.419016 0.07416,-3.485826 0.134153,-9.725149 0.134532,-13.991863 l 3.64e-4,-4.09132 h 1.974453 1.974453 l 0.193397,0.79114 c 0.240748,0.984841 0.857048,2.240628 1.466377,2.987926 1.021899,1.253284 2.648401,2.255019 4.33707,2.671126 l 0.858952,0.211655 0.02416,2.333974 0.02416,2.333975 -0.973526,-0.0571 c -0.535439,-0.03141 -1.271152,-0.140257 -1.634918,-0.241889 -1.333336,-0.37252 -2.696354,-1.21522 -3.674644,-2.271891 -0.280912,-0.303418 -0.527464,-0.534954 -0.547893,-0.514525 -0.02043,0.02043 -0.06178,2.618873 -0.09189,5.774318 -0.03011,3.155444 -0.09171,6.103708 -0.136884,6.551696 -0.329658,3.26909 -2.930598,6.224093 -6.292886,7.149532 -0.734159,0.20207 -3.142873,0.259009 -3.874698,0.09159 z"
     id="path19" />
  <path
     style="fill:#ffffff;fill-rule:evenodd;stroke-width:0.0904159"
     d="m 19.575045,38.798451 c -1.547563,-0.421333 -2.925224,-1.203466 -4.005495,-2.274022 -3.103829,-3.075914 -3.39403,-7.86604 -0.684167,-11.293045 0.78628,-0.994363 1.688917,-1.717336 2.881344,-2.307835 1.254818,-0.621395 1.815854,-0.770517 3.141953,-0.835128 l 1.062387,-0.05176 v 2.030312 2.030311 l -0.786107,0.10518 c -3.331426,0.44574 -5.031717,3.954506 -3.23095,6.667476 1.00777,1.51827 2.872803,2.247473 4.608368,1.801811 0.901589,-0.231513 1.488049,-0.570761 2.171499,-1.256142 0.679046,-0.680965 0.986178,-1.218475 1.130216,-1.977983 0.134437,-0.708881 0.265543,-8.775491 0.26591,-16.360771 l 1.96e-4,-4.046113 h 1.974453 1.974453 l 0.194749,0.788876 c 0.691762,2.802123 2.79633,4.868788 5.736033,5.632723 l 0.925014,0.240382 0.02416,2.333907 0.02416,2.333908 -0.973526,-0.0571 C 33.968396,22.1837 32.468368,21.498822 30.85443,19.949661 l -0.745931,-0.715993 -2.5e-4,1.120055 c -4.68e-4,2.084632 -0.09184,9.15933 -0.134166,10.387687 -0.06268,1.819268 -0.423373,2.975716 -1.377145,4.415405 -0.916935,1.384083 -2.331698,2.57171 -3.783565,3.176124 -1.131132,0.470891 -1.606967,0.56142 -3.158762,0.600962 -1.22035,0.0311 -1.545663,0.0099 -2.079566,-0.13545 z"
     id="path20" />
  <path
     style="fill:#ffffff;fill-rule:evenodd;stroke-width:0.0904159"
     d="m 19.57445,38.793121 c -0.849049,-0.22272 -1.691988,-0.571279 -2.350219,-0.971823 -4.47441,-2.722751 -5.552461,-8.525846 -2.338848,-12.589914 0.78628,-0.994363 1.688917,-1.717336 2.881344,-2.307835 1.254818,-0.621395 1.815854,-0.770517 3.141953,-0.835128 l 1.062387,-0.05176 v 2.035091 2.035091 l -0.550405,0.06227 c -2.235882,0.252961 -3.856224,1.735562 -4.157151,3.803762 -0.233801,1.606858 0.694054,3.430794 2.176775,4.279004 2.129698,1.218321 5.101785,0.244221 6.160998,-2.019263 0.251562,-0.537577 0.279059,-0.695835 0.34911,-2.009342 0.04182,-0.784194 0.105595,-5.423319 0.141717,-10.309169 l 0.06568,-8.883364 h 1.964254 1.964254 l 0.196899,0.79114 c 0.382788,1.538036 1.285792,3.019605 2.398018,3.934454 1.073613,0.883089 1.972719,1.332277 3.453245,1.725222 l 0.800443,0.212444 0.02416,2.333268 0.02416,2.333268 -0.973526,-0.0571 c -2.050891,-0.1203 -3.53375,-0.797338 -5.155268,-2.353776 l -0.745931,-0.715993 -3.98e-4,1.346095 c -6.77e-4,2.290438 -0.08999,9.154144 -0.133993,10.297271 -0.02486,0.645801 -0.110404,1.341186 -0.211333,1.717903 -0.867045,3.236228 -3.618873,5.778787 -6.797133,6.280232 -0.95222,0.150234 -2.663533,0.108831 -3.391192,-0.08205 z"
     id="path21" />
  <path
     style="fill:#ffffff;fill-rule:evenodd;stroke-width:0.0904159"
     d="m 19.575045,38.7925 c -1.346117,-0.354766 -2.350581,-0.858537 -3.361434,-1.685867 -2.346563,-1.920539 -3.505255,-4.800118 -3.112913,-7.736203 0.273756,-2.048648 1.394159,-4.059538 3.011742,-5.405447 0.732203,-0.60923 2.323983,-1.446867 3.191357,-1.679377 0.298373,-0.07998 1.02057,-0.168715 1.604883,-0.197185 l 1.062387,-0.05176 v 2.037892 2.037892 l -0.5651,0.06483 c -1.952326,0.223972 -3.379325,1.316136 -3.955902,3.02768 -0.22129,0.656891 -0.261138,1.712435 -0.08906,2.359239 0.555314,2.087339 2.73541,3.523823 4.8135,3.171655 1.376958,-0.233348 2.781755,-1.210064 3.348215,-2.32792 0.438994,-0.866314 0.434771,-0.786104 0.561441,-10.662899 0.02487,-1.939421 0.04541,-5.143535 0.04563,-7.120253 l 4.08e-4,-3.594033 h 1.97941 1.979411 l 0.159351,0.655516 c 0.725045,2.982587 2.741401,4.96068 5.915313,5.803058 l 0.771217,0.204686 0.02413,2.319365 0.02413,2.319365 h -0.537479 c -2.105418,0 -3.861441,-0.738703 -5.529513,-2.326091 l -0.80767,-0.768602 -4.14e-4,1.56995 c -6.55e-4,2.480778 -0.08824,9.066262 -0.134965,10.147723 -0.02335,0.540559 -0.10925,1.249149 -0.190881,1.574642 -0.808027,3.221918 -3.621558,5.840724 -6.816597,6.344816 -0.954287,0.150561 -2.663785,0.10888 -3.390597,-0.08267 z"
     id="path22" />
  <path
     style="fill:#ffffff;fill-rule:evenodd;stroke-width:0.0904159"
     d="m 19.575045,38.792 c -0.944514,-0.249671 -1.552073,-0.498358 -2.305606,-0.943736 -1.918508,-1.133942 -3.279508,-2.889825 -3.946569,-5.091635 -0.215073,-0.709904 -0.241134,-0.943989 -0.244486,-2.19605 -0.0042,-1.574045 0.09301,-2.109536 0.602237,-3.316894 0.821264,-1.947193 2.240043,-3.432249 4.176522,-4.371622 1.176866,-0.57089 1.760363,-0.720733 3.051537,-0.783642 l 1.062387,-0.05176 v 2.032684 2.032684 l -0.70838,0.100178 c -0.928446,0.131299 -1.608155,0.393337 -2.254487,0.86914 -0.65075,0.479055 -1.021113,0.939235 -1.40034,1.739941 -0.280207,0.591633 -0.293213,0.667425 -0.293213,1.708773 0,1.073346 0.005,1.099775 0.332856,1.76311 1.12957,2.285332 3.737934,3.14466 5.975003,1.96847 0.741099,-0.389649 1.633844,-1.277523 1.925845,-1.915337 0.413414,-0.903015 0.393099,-0.485869 0.535584,-10.998147 0.0246,-1.8151 0.04508,-4.876809 0.0455,-6.803798 l 7.67e-4,-3.503617 h 1.987428 1.987427 l 0.05127,0.248644 c 0.317308,1.538853 1.088131,3.039209 2.077048,4.042839 1.01429,1.029381 2.140327,1.660059 3.785425,2.120168 l 0.916104,0.25622 0.02413,2.317059 0.02413,2.31706 h -0.537479 c -2.083239,0 -3.850336,-0.734989 -5.483194,-2.280624 -0.422918,-0.400329 -0.782889,-0.712125 -0.799934,-0.692882 -0.01704,0.01924 -0.07143,2.862746 -0.120853,6.318894 -0.08351,5.839952 -0.102558,6.328622 -0.26955,6.916818 -0.938707,3.306407 -3.616391,5.777062 -6.806509,6.280255 -0.955963,0.150788 -2.663978,0.10888 -3.390597,-0.08319 z"
     id="path23" />
  <path
     style="fill:#ffffff;fill-rule:evenodd;stroke-width:0.0904159"
     d="m 19.846293,38.867995 c -4.220439,-0.969734 -7.059707,-4.68766 -6.792934,-8.89512 0.07004,-1.104719 0.222088,-1.768446 0.622707,-2.718352 0.82926,-1.966252 2.232198,-3.436832 4.181077,-4.382667 1.138056,-0.552324 1.814968,-0.726898 3.096768,-0.798644 l 1.017203,-0.05694 -2.4e-5,2.048084 -2.3e-5,2.048085 -0.5651,0.06328 c -1.704618,0.190875 -3.025329,1.088066 -3.744415,2.543674 -0.344212,0.696769 -0.346905,0.710676 -0.346905,1.791593 0,1.071494 0.0055,1.100537 0.332565,1.769528 0.843021,1.724131 2.730203,2.744618 4.526942,2.447925 1.880575,-0.310536 3.444403,-1.77582 3.68883,-3.45638 0.04606,-0.316722 0.104937,-2.183001 0.130827,-4.147287 0.02589,-1.964286 0.06691,-4.832731 0.09116,-6.374322 0.02424,-1.541591 0.04434,-4.359177 0.04466,-6.261302 l 5.76e-4,-3.458409 h 1.987428 1.987427 l 0.05382,0.248644 c 0.668143,3.086999 2.688757,5.281646 5.600624,6.082995 0.39783,0.109483 0.825045,0.228277 0.949367,0.263987 l 0.22604,0.06493 0.02413,2.320719 0.02413,2.320719 -0.657042,-0.0032 c -2.007203,-0.0096 -3.749267,-0.74934 -5.363631,-2.277469 -0.422918,-0.400329 -0.782404,-0.712125 -0.798857,-0.692882 -0.01645,0.01924 -0.0716,2.862746 -0.122541,6.318894 -0.100928,6.846984 -0.09191,6.736037 -0.655263,8.0599 -1.139115,2.67688 -3.671963,4.703553 -6.420185,5.13715 -0.711101,0.112193 -2.61894,0.107805 -3.119349,-0.0072 z"
     id="path24" />
  <path
     style="fill:#ffffff;fill-rule:evenodd;stroke-width:0.0904159"
     d="m 19.504095,38.789249 c -2.561713,-0.651756 -4.879835,-2.668848 -5.849141,-5.089574 -0.498207,-1.244215 -0.58292,-1.708616 -0.580859,-3.184304 0.0021,-1.520746 0.10642,-2.085947 0.601528,-3.259834 0.83216,-1.973029 2.208966,-3.417624 4.18152,-4.387404 1.140632,-0.560778 1.722375,-0.711303 3.051537,-0.789581 l 1.062387,-0.06257 v 2.046115 2.046117 l -0.679326,0.101037 c -1.799337,0.267618 -2.999251,1.13368 -3.72898,2.691466 -0.227331,0.485294 -0.248114,0.62054 -0.248114,1.614651 0,1.045148 0.01102,1.107524 0.300058,1.698624 0.642821,1.314602 1.891037,2.272892 3.261678,2.504081 1.569732,0.264769 3.319263,-0.478096 4.31658,-1.832854 0.605241,-0.822163 0.667171,-1.134875 0.755824,-3.816506 0.0786,-2.377672 0.180622,-11.174843 0.181133,-15.619349 l 2.79e-4,-2.418626 h 1.987428 1.987427 l 0.05382,0.248644 c 0.170222,0.786475 0.467117,1.610833 0.83851,2.32821 0.341298,0.659245 0.59303,0.987009 1.325876,1.726337 0.807634,0.814779 1.007581,0.963721 1.865454,1.389584 0.528473,0.262344 1.362559,0.584798 1.853526,0.716565 l 0.892665,0.239577 0.02413,2.326536 0.02413,2.326537 -0.657042,-0.0032 c -2.002643,-0.0096 -3.749708,-0.749758 -5.353741,-2.268109 -0.41748,-0.395179 -0.777648,-0.686632 -0.800374,-0.647673 -0.02273,0.03896 -0.06882,2.65447 -0.102424,5.812246 -0.03361,3.157776 -0.100019,6.071007 -0.147582,6.473847 -0.372748,3.157003 -2.740358,5.91796 -5.961781,6.952252 -0.679841,0.218275 -0.940708,0.250759 -2.260398,0.281469 -1.267491,0.0295 -1.597721,0.0078 -2.195724,-0.144359 z"
     id="path25" />
  <path
     style="fill:#ffffff;fill-rule:evenodd;stroke-width:0.0904159"
     d="m 19.846281,38.88307 c -1.756796,-0.376445 -3.692582,-1.548987 -4.821092,-2.920226 -1.259362,-1.530236 -1.883086,-3.121309 -1.97599,-5.040602 -0.06247,-1.290484 0.113534,-2.396652 0.55586,-3.493603 0.795269,-1.972233 2.105549,-3.433018 3.968006,-4.423789 1.253014,-0.666566 2.165345,-0.902409 3.742487,-0.967452 l 0.655515,-0.02703 v 2.048927 2.048927 l -0.670053,0.09966 c -1.765921,0.262649 -3.038119,1.175844 -3.723397,2.672689 -0.327827,0.716068 -0.402531,1.882678 -0.174501,2.725089 0.428938,1.584625 1.911879,2.879365 3.573376,3.119878 1.3123,0.189965 2.723758,-0.306749 3.752739,-1.320647 0.684047,-0.674018 1.010023,-1.313798 1.12686,-2.21164 0.04852,-0.37283 0.110061,-2.630856 0.136764,-5.017836 0.0267,-2.38698 0.06814,-5.235082 0.09209,-6.329114 0.02394,-1.094033 0.04392,-3.52509 0.0444,-5.402351 l 8.61e-4,-3.413201 h 1.987428 1.987427 l 0.05675,0.248644 c 0.388324,1.701457 0.98384,2.85108 2.066288,3.988894 0.967611,1.017106 2.155691,1.692539 3.802651,2.161839 l 0.90416,0.257639 0.02413,2.322487 0.02413,2.322487 -0.657042,-0.0032 c -1.977566,-0.0095 -3.73675,-0.74523 -5.301477,-2.217213 -0.393438,-0.370118 -0.760522,-0.672942 -0.815742,-0.672942 -0.07118,0 -0.102427,0.782748 -0.107365,2.689874 -0.0038,1.47943 -0.03988,4.297016 -0.08011,6.261302 -0.0832,4.062526 -0.119867,4.311172 -0.857888,5.817834 -1.021777,2.085944 -2.928513,3.715491 -5.203323,4.446897 -0.685394,0.220371 -0.929927,0.250247 -2.260398,0.276172 -0.820524,0.01599 -1.654616,-0.0058 -1.853538,-0.04843 z"
     id="path26" />
  <path
     style="fill:#ffffff;fill-rule:evenodd;stroke-width:0.0904159"
     d="m 19.846281,38.877508 c -2.75707,-0.548386 -5.309604,-2.754845 -6.299343,-5.445274 -1.093721,-2.973084 -0.444461,-6.281578 1.696356,-8.644281 0.669376,-0.738753 1.474204,-1.344499 2.460002,-1.851496 0.997366,-0.512946 1.811241,-0.76233 2.704299,-0.828641 0.387486,-0.02877 0.897785,-0.07271 1.133996,-0.09764 l 0.429476,-0.04533 v 2.074196 2.074196 l -0.474684,0.05974 c -1.23463,0.155395 -2.122408,0.558317 -2.92208,1.326201 -0.628124,0.603156 -0.96511,1.162081 -1.166264,1.934365 -0.698532,2.681843 1.321426,5.288615 4.110948,5.305211 1.274102,0.0076 2.400526,-0.489018 3.345994,-1.475124 0.61663,-0.643133 0.898802,-1.285422 1.001906,-2.28057 0.08484,-0.818855 0.257984,-12.308613 0.2615,-17.352859 l 0.0018,-2.599458 h 1.985665 1.985665 l 0.0939,0.361664 c 0.05165,0.198915 0.138501,0.534584 0.193013,0.745931 0.280761,1.088539 1.120063,2.459141 2.037664,3.327557 1.005706,0.951799 2.033468,1.510293 3.616996,1.965503 l 0.891798,0.256361 0.02413,2.322487 0.02413,2.322487 h -0.671692 c -1.939713,0 -3.728266,-0.754184 -5.30406,-2.236579 -0.574967,-0.540888 -0.75017,-0.661351 -0.814358,-0.559923 -0.04498,0.07108 -0.08522,1.349847 -0.08943,2.84171 -0.0042,1.491862 -0.04176,4.278933 -0.08345,6.19349 -0.0859,3.944472 -0.11454,4.132207 -0.86217,5.651235 -1.18654,2.410802 -3.594893,4.243063 -6.114547,4.651911 -0.661702,0.107371 -2.662871,0.109206 -3.197171,0.0029 z"
     id="path27" />
</svg>
