<?xml version="1.0" encoding="UTF-8" standalone="no"?>
<svg
   height="100%"
   style="fill-rule:evenodd;clip-rule:evenodd;stroke-linejoin:round;stroke-miterlimit:2;"
   version="1.1"
   viewBox="0 0 512 512"
   width="100%"
   xml:space="preserve"
   id="svg1"
   sodipodi:docname="youtube.svg"
   inkscape:version="1.4 (86a8ad7, 2024-10-11)"
   xmlns:inkscape="http://www.inkscape.org/namespaces/inkscape"
   xmlns:sodipodi="http://sodipodi.sourceforge.net/DTD/sodipodi-0.dtd"
   xmlns="http://www.w3.org/2000/svg"
   xmlns:svg="http://www.w3.org/2000/svg"><defs
     id="defs1" /><sodipodi:namedview
     id="namedview1"
     pagecolor="#ffffff"
     bordercolor="#000000"
     borderopacity="0.25"
     inkscape:showpageshadow="2"
     inkscape:pageopacity="0.0"
     inkscape:pagecheckerboard="0"
     inkscape:deskcolor="#d1d1d1"
     showgrid="false"
     inkscape:zoom="1.0800781"
     inkscape:cx="133.32369"
     inkscape:cy="256.00001"
     inkscape:window-width="1366"
     inkscape:window-height="705"
     inkscape:window-x="-8"
     inkscape:window-y="-8"
     inkscape:window-maximized="1"
     inkscape:current-layer="svg1" /><path
     d="M501.303,132.765c-5.887,-22.03 -23.235,-39.377 -45.265,-45.265c-39.932,-10.7 -200.038,-10.7 -200.038,-10.7c0,0 -160.107,0 -200.039,10.7c-22.026,5.888 -39.377,23.235 -45.264,45.265c-10.697,39.928 -10.697,123.238 -10.697,123.238c0,0 0,83.308 10.697,123.232c5.887,22.03 23.238,39.382 45.264,45.269c39.932,10.696 200.039,10.696 200.039,10.696c0,0 160.106,0 200.038,-10.696c22.03,-5.887 39.378,-23.239 45.265,-45.269c10.696,-39.924 10.696,-123.232 10.696,-123.232c0,0 0,-83.31 -10.696,-123.238Zm-296.506,200.039l0,-153.603l133.019,76.802l-133.019,76.801Z"
     style="fill-rule:nonzero;fill:#ff0000"
     id="path1" /><path
     style="fill:#008000;fill-rule:evenodd;stroke-width:0.925859"
     d="m 205.54069,256.03814 v -75.56079 l 2.08318,1.09874 c 1.58028,0.83348 128.36777,73.84147 129.07236,74.32366 0.15273,0.10453 -113.78028,65.9591 -124.83577,72.1565 l -6.31977,3.54268 z"
     id="path2" /><path
     style="fill:#ffffff;fill-rule:evenodd;stroke-width:0.925859"
     d="m 205.54069,256.00001 c 0,-40.99241 0.19318,-74.53165 0.42928,-74.53165 0.60182,0 127.63623,73.13732 128.5409,74.00465 0.4063,0.38953 -5.00998,4.03473 -12.03616,8.10045 -69.73455,40.35211 -115.99398,66.95819 -116.41877,66.95819 -0.28339,0 -0.51525,-33.53924 -0.51525,-74.53164 z"
     id="path3" /><path
     style="fill:#ffffff;fill-rule:evenodd;stroke-width:0.925859"
     d="m 206.31439,291.41974 c -0.17092,-21.00852 -0.10245,-54.11626 0.15216,-73.57275 l 0.46293,-35.37543 29.16456,16.73454 c 61.35847,35.20732 94.94639,54.72024 96.1448,55.85536 1.02329,0.96925 -0.5387,2.24533 -8.79566,7.18566 -12.72258,7.61221 -88.52102,51.32976 -116.20293,67.02127 -0.3383,0.19177 -0.75494,-16.84013 -0.92586,-37.84865 z"
     id="path4" /><path
     style="fill:#ffffff;fill-rule:evenodd;stroke-width:0.925859"
     d="m 206.34742,295.63512 c -0.12528,-35.84136 0.1921,-112.6526 0.46673,-112.955 0.38478,-0.42369 123.7389,70.74709 125.42469,72.36542 1.02789,0.98676 -0.50157,2.24099 -8.79566,7.21284 -10.54513,6.32121 -61.85731,35.97193 -95.68187,55.28972 -10.94829,6.25276 -20.21845,11.54827 -20.60036,11.76782 -0.38192,0.21954 -0.74801,-14.93682 -0.81353,-33.6808 z"
     id="path5" /><path
     style="fill:#ffffff;fill-rule:evenodd;stroke-width:0.925859"
     d="m 206.34742,295.60425 c -0.12623,-36.07948 0.19294,-112.62294 0.47088,-112.92829 0.40534,-0.4453 123.65739,70.66659 125.41531,72.36002 1.02308,0.98554 0.0549,1.92414 -5.55515,5.38536 -7.16785,4.42235 -112.72928,65.36259 -117.45485,67.80628 l -2.75706,1.42573 z"
     id="path6" /><path
     style="fill:#ffffff;fill-rule:evenodd;stroke-width:0.925859"
     d="m 206.34742,295.66017 c -0.13307,-38.09842 0.19868,-112.68688 0.50267,-113.01599 0.47201,-0.51102 125.20904,71.61922 125.963,72.83916 0.25618,0.4145 -1.14782,1.82145 -3.11997,3.12656 -3.37885,2.23601 -103.52604,60.1707 -116.97702,67.67065 l -6.24955,3.48461 z"
     id="path7" /><path
     style="fill:#ffffff;fill-rule:evenodd;stroke-width:0.925859"
     d="m 206.34742,295.66017 c -0.13306,-38.09571 0.19867,-112.68687 0.50262,-113.01595 0.32652,-0.3535 113.29992,64.609 122.92269,70.68359 l 3.8481,2.4292 -2.21805,1.67306 c -3.03304,2.28784 -94.42363,55.30037 -118.68668,68.84607 l -6.24955,3.48902 z"
     id="path8" /><path
     style="fill:#ffffff;fill-rule:evenodd;stroke-width:0.925859"
     d="m 206.34742,295.60425 c -0.13256,-37.89074 0.19832,-112.63046 0.50009,-112.95749 0.4764,-0.5163 123.39409,70.4269 125.37513,72.36155 1.01306,0.98933 0.20259,1.84523 -4.62929,4.88883 -6.4016,4.03236 -113.24095,65.74272 -118.11776,68.22476 l -3.00904,1.53145 z"
     id="path9" /><path
     style="fill:#ffffff;fill-rule:evenodd;stroke-width:0.925859"
     d="m 206.31623,296.06222 c -0.0827,-18.46966 -0.1798,-36.49766 -0.21581,-40.06221 -0.036,-3.56456 0.0316,-21.59479 0.15032,-40.06718 l 0.21581,-33.58616 3.00904,1.5329 c 9.59999,4.89054 121.02474,69.46531 122.74705,71.13646 1.0111,0.98106 0.18441,1.85069 -4.67939,4.92246 -6.86932,4.33837 -111.92976,65.03852 -117.39588,67.82712 l -3.68082,1.87782 z"
     id="path10" /><path
     style="fill:#ffffff;fill-rule:evenodd;stroke-width:0.925859"
     d="m 206.34445,290.48825 c -0.18746,-21.51465 -0.13251,-54.66941 0.1221,-73.67726 l 0.46293,-34.55972 37.03436,21.23791 c 55.80334,32.00127 86.89157,50.14121 88.2588,51.49892 1.01807,1.01098 0.22652,1.84967 -4.62929,4.90498 -8.71553,5.48386 -119.84901,69.71271 -120.62206,69.71271 -0.15731,0 -0.43938,-17.60289 -0.62684,-39.11754 z"
     id="path11" /><path
     style="fill:#ffffff;fill-rule:evenodd;stroke-width:0.925859"
     d="m 206.36642,289.09946 c -0.20553,-22.27848 -0.16292,-55.43358 0.0947,-73.678 l 0.46838,-33.17167 40.27487,23.08434 c 54.50014,31.23785 83.54324,48.20216 85.01829,49.65986 1.01661,1.00466 0.21959,1.84748 -4.62929,4.8952 -9.67735,6.08262 -119.75629,69.7166 -120.60113,69.7166 -0.13866,0 -0.42027,-18.22784 -0.6258,-40.50633 z"
     id="path12" /><path
     style="fill:#ffffff;fill-rule:evenodd;stroke-width:0.925859"
     d="m 206.27885,297.89512 c -0.19951,-33.70609 0.2664,-114.84941 0.66212,-115.31591 0.45717,-0.53893 119.47825,68.11241 124.1343,71.60064 l 2.51377,1.88328 -5.92652,3.82294 c -8.6025,5.5491 -119.72332,69.71972 -120.72989,69.71972 -0.25635,0 -0.55054,-14.2698 -0.65378,-31.71067 z"
     id="path13" /><path
     style="fill:#ffffff;fill-rule:evenodd;stroke-width:0.925859"
     d="m 206.27885,297.89512 c -0.20288,-34.27425 0.26906,-114.85405 0.67545,-115.32924 0.49505,-0.57886 120.85052,68.90139 124.57009,71.91331 l 2.05581,1.6647 -2.68159,1.88884 c -4.46413,3.1444 -122.95794,71.57306 -123.93878,71.57306 -0.2713,0 -0.57774,-14.2698 -0.68098,-31.71067 z"
     id="path14" /></svg>
